<svg width="32" height="32" viewBox="0 0 32 32" fill="none" xmlns="http://www.w3.org/2000/svg">
<rect width="32" height="32" fill="#848484"/>
<path d="M5.23577 4C5.9187 4 6.47154 4.58203 6.47154 5.301V26.699C6.47154 27.418 5.9187 28 5.23577 28C4.55285 28 4 27.3837 4 26.6648V5.301C4 4.58203 4.55285 4 5.23577 4ZM10.1789 18.9957H25.561V12.97H10.1789V18.9957ZM26.7642 10.4365C27.4472 10.4365 28 11.0185 28 11.7375V20.2967C28 21.0157 27.4472 21.5977 26.7642 21.5977H8.94309C8.26016 21.5977 7.70732 21.0157 7.70732 20.2967V11.7375C7.70732 11.0185 8.26016 10.4365 8.94309 10.4365H26.7642Z" fill="black"/>
</svg>
