<svg width="32" height="32" viewBox="0 0 32 32" fill="none" xmlns="http://www.w3.org/2000/svg">
<rect width="32" height="32" fill="#848484"/>
<path d="M26.72 14.72C27.424 14.72 28 15.296 28 16C28 16.704 27.424 17.28 26.72 17.28H21.568V26.72C21.568 27.424 20.992 28 20.288 28H11.712C11.008 28 10.432 27.424 10.432 26.72V17.28H5.28C4.576 17.28 4 16.704 4 16C4 15.296 4.576 14.72 5.28 14.72H10.432V5.28C10.432 4.576 11.008 4 11.712 4H20.288C20.992 4 21.568 4.576 21.568 5.28V14.72H26.72ZM12.992 25.44H19.008V6.56H12.992V25.44Z" fill="black"/>
</svg>
