<svg width="32" height="32" viewBox="0 0 32 32" fill="none" xmlns="http://www.w3.org/2000/svg">
<rect width="32" height="32" fill="#848484"/>
<path d="M5.1505 5C5.78967 5 6.301 5.51133 6.301 6.1505V25.4853C6.301 26.1245 5.78967 26.6358 5.1505 26.6358C4.51133 26.6358 4 26.1245 4 25.4853V6.1505C4 5.51133 4.51133 5 5.1505 5ZM26.8183 5C27.4575 5 27.9688 5.51133 27.9688 6.1505V25.4853C27.9688 26.1245 27.4575 26.6358 26.8183 26.6358C26.1791 26.6358 25.6678 26.1245 25.6678 25.4853V6.1505C25.6358 5.51133 26.1791 5 26.8183 5ZM13.2679 24.3348H18.7009V7.33296H13.2679V24.3348ZM19.8514 5C20.4905 5 21.0019 5.51133 21.0019 6.1505V25.4853C21.0019 26.1245 20.4905 26.6358 19.8514 26.6358H12.1174C11.4783 26.6358 10.9669 26.1245 10.9669 25.4853V6.1505C10.9669 5.51133 11.4783 5 12.1174 5H19.8514Z" fill="black"/>
</svg>
