<svg width="32" height="32" viewBox="0 0 32 32" fill="none" xmlns="http://www.w3.org/2000/svg">
<rect width="32" height="32" fill="#848484"/>
<path d="M21.8347 13.8097C21.8817 13.7642 21.9335 13.7223 21.9899 13.6847C22.049 13.6454 22.1104 13.6125 22.1735 13.5859C23.3145 12.8004 24.3563 11.7577 25.3045 10.4533C25.6617 9.96191 26.3496 9.85311 26.841 10.2103C27.3324 10.5675 27.4412 11.2554 27.084 11.7468C26.1807 12.9896 25.1894 14.0369 24.1131 14.8865L25.5153 16.9898C25.8523 17.4953 25.7157 18.1783 25.2102 18.5153C24.7048 18.8522 24.0218 18.7157 23.6848 18.2102L22.2775 16.0991C20.7425 16.9312 19.0635 17.4194 17.2472 17.5586V20.1C17.2472 20.7075 16.7547 21.2 16.1472 21.2C15.5396 21.2 15.0472 20.7075 15.0472 20.1V17.5586C13.2035 17.4174 11.5014 16.9164 9.94782 16.0614L8.51533 18.2102C8.17835 18.7157 7.49539 18.8522 6.98991 18.5153C6.48443 18.1783 6.34783 17.4953 6.68482 16.9898L8.11966 14.8376C7.06706 13.9968 6.09635 12.9658 5.2103 11.7468C4.85311 11.2554 4.96191 10.5675 5.45332 10.2103C5.94473 9.85311 6.63266 9.96191 6.98986 10.4533C9.40468 13.7755 12.4273 15.4001 16.1472 15.4001C18.2631 15.4001 20.1535 14.8744 21.8347 13.8097Z" fill="black"/>
</svg>
