<svg width="24" height="24" viewBox="0 0 24 24" fill="none" xmlns="http://www.w3.org/2000/svg">
<g clip-path="url(#clip0_542_41)">
<path d="M12.0005 15.2417V8.75638" stroke="black" stroke-width="2" stroke-linecap="round" stroke-linejoin="round"/>
<path d="M8.11112 9.78757L8.07056 9.17111C8.07063 8.01379 8.48464 6.9039 9.2215 6.08561C9.95837 5.26731 10.9577 4.80765 11.9997 4.80773C13.0417 4.80781 14.0411 5.26763 14.7778 6.08604C15.5146 6.90445 15.9284 8.0144 15.9284 9.17173L15.8895 9.78757" stroke="black" stroke-width="2" stroke-linecap="round" stroke-linejoin="round"/>
<path d="M15.8894 14.213L15.9655 14.7875C15.9596 15.9519 15.5406 17.0668 14.7992 17.8901C14.0579 18.7135 13.0541 19.1789 12.0058 19.1855C11.489 19.1887 10.9769 19.078 10.4989 18.8599C10.0209 18.6418 9.5867 18.3205 9.22131 17.9147C8.85592 17.5088 8.56665 17.0265 8.37025 16.4957C8.17385 15.9648 8.07422 15.396 8.07714 14.8221L8.11103 14.213" stroke="black" stroke-width="2" stroke-linecap="round" stroke-linejoin="round"/>
</g>
<defs>
<clipPath id="clip0_542_41">
<rect width="24" height="24" fill="white"/>
</clipPath>
</defs>
</svg>
