<svg width="32" height="32" viewBox="0 0 32 32" fill="none" xmlns="http://www.w3.org/2000/svg">
<rect width="32" height="32" fill="#848484"/>
<path d="M16.1548 7C17.3434 7 18.3095 7.96434 18.3095 9.15301C18.3095 10.3417 17.3434 11.3078 16.1548 11.3078C14.9661 11.3078 14 10.3434 14 9.15476C14 7.96609 14.9661 7 16.1548 7ZM16.1548 13.8258C17.3434 13.8258 18.3095 14.7902 18.3095 15.9788C18.3095 17.1675 17.3434 18.1336 16.1548 18.1336C14.9661 18.1336 14 17.1692 14 15.9806C14 14.7919 14.9661 13.8258 16.1548 13.8258ZM16.1548 20.6534C17.3434 20.6534 18.3095 21.6178 18.3095 22.8064C18.3095 23.9951 17.3434 24.9612 16.1548 24.9612C14.9661 24.9612 14 23.9969 14 22.8082C14 21.6195 14.9661 20.6534 16.1548 20.6534Z" fill="black"/>
</svg>
