<svg width="44" height="44" viewBox="0 0 44 44" fill="none" xmlns="http://www.w3.org/2000/svg">
<path d="M7.33334 18V14.6667C7.33334 12.7218 8.10596 10.8565 9.48123 9.48123C10.8565 8.10596 12.7218 7.33334 14.6667 7.33334H18" stroke="black" stroke-width="2.75" stroke-linecap="round" stroke-linejoin="round"/>
<path d="M36.6667 18V14.6667C36.6667 12.7218 35.894 10.8565 34.5188 9.48123C33.1435 8.10596 31.2782 7.33334 29.3333 7.33334H26" stroke="black" stroke-width="2.75" stroke-linecap="round" stroke-linejoin="round"/>
<path d="M7.33334 26V29.3333C7.33334 31.2782 8.10596 33.1435 9.48123 34.5188C10.8565 35.894 12.7218 36.6667 14.6667 36.6667H18" stroke="black" stroke-width="2.75" stroke-linecap="round" stroke-linejoin="round"/>
<path d="M36.6667 26V29.3333C36.6667 31.2782 35.894 33.1435 34.5188 34.5188C33.1435 35.894 31.2782 36.6667 29.3333 36.6667H26" stroke="black" stroke-width="2.75" stroke-linecap="round" stroke-linejoin="round"/>
</svg>
